<?xml version="1.0" encoding="utf-8"?>
<!-- Generator: Adobe Illustrator 21.0.0, SVG Export Plug-In . SVG Version: 6.00 Build 0)  -->
<svg version="1.1"
	 id="svg2" xmlns:cc="http://creativecommons.org/ns#" xmlns:dc="http://purl.org/dc/elements/1.1/" xmlns:rdf="http://www.w3.org/1999/02/22-rdf-syntax-ns#" xmlns:svg="http://www.w3.org/2000/svg"
	 xmlns="http://www.w3.org/2000/svg" xmlns:xlink="http://www.w3.org/1999/xlink" x="0px" y="0px" viewBox="0 0 184.8 67.3"
	 style="enable-background:new 0 0 184.8 67.3;" xml:space="preserve">
<style type="text/css">
	.st0{fill:#000000;}
</style>
<g id="layer1" transform="translate(-41.373789,-37.414234)">
	<g id="text4194">
		<path id="path4201" class="st0" d="M50.9,38.3l-9.5,65.5h49.1l1.6-11.7H59.9l2.2-16.2h23.2L87,64.2h-23L66,50h26.5l1.6-11.7
			C94.1,38.3,50.9,38.3,50.9,38.3z"/>
		<path id="path4205" class="st0" d="M191.4,103.8l-3.1-65.5h-17.1l-22.5,41.6l-10.4-41.6h-17.6l-21.6,65.5h16.5l14.2-43.3
			l10.8,43.3h10.1l22.7-41.9l1.8,41.9C175.3,103.8,191.4,103.8,191.4,103.8z"/>
		<path id="path4217" class="st0" d="M216.6,81.8l7.5-26.1c1.4-4.6,2.1-7.8,2.1-11.2c0-2.8-1.8-7.1-8.3-7.1c-5.9,0-8.3,3.5-9.1,5.5
			c-0.8,2.1-1.2,6.6-1.3,8.5l-0.9,30.4H216.6z M209.7,104.7c5.4,0,9.9-4.5,9.9-9.9c0-5.4-4.5-9.9-9.9-9.9s-9.9,4.5-9.9,9.9
			C199.8,100.2,204.3,104.7,209.7,104.7z"/>
	</g>
</g>
</svg>
