<svg viewBox="0 0 104.7 88.6" xmlns="http://www.w3.org/2000/svg"><path transform="translate(0.32 -0.28)" d="M104 16.5l-0.1 0 0 0L72.4 0.6a3.3 3.3 0 0 0-0.7-0.2 3.5 3.5 0 0 0-0.9-0.1 3.6 3.6 0 0 0-3.1 1.7L49.6 31.5 72.4 68.5 104.1 17A0.4 0.4 0 0 0 104 16.5Z"/><polygon points="39.9 24.5 39.9 58.1 69.8 73 39.9 24.5"/><path transform="translate(0.32 -0.28)" d="M73.9 75.6l24.6 12.3c3.2 1.6 5.8 0.5 5.8-2.5V26.2ZM34.4 16.5L3.5 1.1A3.5 3.5 0 0 0 2 0.7c-1.3 0-2.3 1-2.3 2.8V70.1a5.8 5.8 0 0 0 2.9 4.7L29.7 88.3a4.4 4.4 0 0 0 2 0.5c1.7 0 2.9-1.3 2.9-3.5V16.8A0.3 0.3 0 0 0 34.4 16.5Z"/></svg>