<svg viewBox="0 0 21.6 18.7" xmlns="http://www.w3.org/2000/svg"><style type="text/css">  
	.st2{fill:none;}
	.st3{fill:none;stroke:#000000;stroke-width:1.1;stroke-linecap:round;stroke-linejoin:round;}
	.st4{stroke:#000000;stroke-width:1.1;}
</style><path class="st2" d="M3.3 7.8c1 0.7 1.2 2 0.5 3s-2 1.2-3 0.5 -1.2-2-0.5-3C1 7.3 2.4 7.1 3.3 7.8"/><path d="M4.2 9.5c0 1.2-1 2.1-2.1 2.1 -1.2 0-2.1-1-2.1-2.1 0-1.2 1-2.1 2.1-2.1C3.3 7.4 4.2 8.3 4.2 9.5Z"/><path class="st2" d="M21.6 9.5c0 1.2-1 2.1-2.1 2.1 -1.2 0-2.1-1-2.1-2.1 0-1.2 1-2.1 2.1-2.1C20.7 7.4 21.6 8.3 21.6 9.5"/><path d="M21.6 9.5c0 1.2-1 2.1-2.1 2.1 -1.2 0-2.1-1-2.1-2.1 0-1.2 1-2.1 2.1-2.1C20.7 7.4 21.6 8.3 21.6 9.5Z"/><path class="st3" d="M16.7 2.1l-4.3-1 -1.6 4.9"/><path class="st2" d="M20.1 2.3c0 0.9-0.8 1.7-1.7 1.7s-1.7-0.8-1.7-1.7c0-0.9 0.8-1.7 1.7-1.7C19.4 0.7 20.1 1.4 20.1 2.3"/><path class="st4" d="M20.1 2.3c0 0.9-0.8 1.7-1.7 1.7s-1.7-0.8-1.7-1.7c0-0.9 0.8-1.7 1.7-1.7C19.4 0.7 20.1 1.4 20.1 2.3Z"/><path class="st2" d="M20.4 12.4c0 3.5-4.3 6.3-9.6 6.3 -5.3 0-9.6-2.8-9.6-6.3s4.3-6.3 9.6-6.3C16.1 6.2 20.4 9 20.4 12.4"/><path d="M10.8 6.1c-5.3 0-9.6 2.8-9.6 6.3s4.3 6.3 9.6 6.3 9.6-2.8 9.6-6.3S16.1 6.1 10.8 6.1ZM6.1 11.2c0-0.7 0.6-1.4 1.4-1.4 0.7 0 1.4 0.6 1.4 1.4 0 0.7-0.6 1.4-1.4 1.4C6.7 12.5 6.1 11.9 6.1 11.2ZM14.4 15.6c-0.7 0.7-1.9 1.1-3.6 1.1l0 0 0 0c-1.7 0-2.8-0.4-3.6-1.1 -0.1-0.1-0.1-0.4 0-0.5s0.4-0.1 0.5 0c0.6 0.6 1.6 0.9 3.1 0.9l0 0 0 0c1.5 0 2.5-0.3 3.1-0.9 0.1-0.1 0.4-0.1 0.5 0S14.5 15.4 14.4 15.6ZM14.2 12.5c-0.7 0-1.4-0.6-1.4-1.4 0-0.7 0.6-1.4 1.4-1.4 0.7 0 1.4 0.6 1.4 1.4C15.5 11.9 14.9 12.5 14.2 12.5Z"/></svg>