<?xml version="1.0" encoding="utf-8"?>
<!-- Generator: Adobe Illustrator 21.0.0, SVG Export Plug-In . SVG Version: 6.00 Build 0)  -->
<svg version="1.1" id="Calque_1" xmlns="http://www.w3.org/2000/svg" xmlns:xlink="http://www.w3.org/1999/xlink" x="0px" y="0px"
	 viewBox="0 0 20.3 14.6" style="enable-background:new 0 0 20.3 14.6;" xml:space="preserve">
<path d="M17.8,1.8C15.3-0.1,12.9,0,12.9,0l-0.3,0.3c2.9,0.9,4.3,2.2,4.3,2.2c-1.8-0.9-3.5-1.5-5.2-1.6c-1.2-0.2-2.4-0.1-3.5,0
	c-0.1,0-0.2,0-0.3,0C7.4,0.9,5.9,1.1,4,2C3.5,2.2,3.1,2.5,3.1,2.5s1.5-1.4,4.5-2.2L7.4,0.1c0,0-2.4-0.1-4.9,1.8c0,0-2.5,4.5-2.5,10
	c0,0,1.5,2.5,5.2,2.7c0,0,0.6-0.8,1.1-1.5c-2.2-0.7-3-2.1-3-2.1s0.2,0.1,0.5,0.3c0,0,0,0,0.1,0.1c0.1,0,0.1,0.1,0.2,0.1
	c0.4,0.3,0.9,0.4,1.3,0.6c0.7,0.3,1.5,0.5,2.6,0.8c1.3,0.3,2.8,0.3,4.5,0c0.8-0.2,1.6-0.3,2.5-0.8c0.6-0.3,1.3-0.5,2-1
	c0,0-0.9,1.4-3.1,2.1c0.5,0.7,1.1,1.4,1.1,1.4c3.8-0.1,5.3-2.7,5.3-2.7C20.2,6.4,17.8,1.8,17.8,1.8z M7,8.6c-0.9,0-1.8-0.9-1.8-1.9
	S6,4.8,7,4.8c0.9,0,1.8,0.9,1.8,1.9S8.1,8.6,7,8.6z M13.4,8.6c-0.9,0-1.8-0.9-1.8-1.9s0.8-1.9,1.8-1.9c0.9,0,1.8,0.9,1.8,1.9
	C15.1,7.7,14.3,8.6,13.4,8.6z"/>
</svg>
