<?xml version="1.0" encoding="utf-8"?>
<!-- Generator: Adobe Illustrator 21.0.0, SVG Export Plug-In . SVG Version: 6.00 Build 0)  -->
<svg version="1.1" id="Layer_1" xmlns="http://www.w3.org/2000/svg" xmlns:xlink="http://www.w3.org/1999/xlink" x="0px" y="0px"
	 viewBox="0 0 66 66" style="enable-background:new 0 0 66 66;" xml:space="preserve">
<g>
	<polyline points="0,0 13,0 13,4 4,4 4,13 0,13 	"/>
	<polyline points="0,66 0,53 4,53 4,62 13,62 13,66 	"/>
	<polyline points="53,66 53,62 62,62 62,53 66,53 66,66 	"/>
	<polyline points="66,13 62,13 62,4 53,4 53,0 66,0 	"/>
	<rect x="11" y="-1.1" transform="matrix(0.7071 -0.7071 0.7071 0.7071 -5.3848 13)" width="4" height="28.3"/>
	<rect x="51" y="38.9" transform="matrix(0.7071 -0.7071 0.7071 0.7071 -21.9533 53)" width="4" height="28.3"/>
	<rect x="-1.1" y="51" transform="matrix(0.7071 -0.7071 0.7071 0.7071 -33.669 24.7157)" width="28.3" height="4"/>
	<rect x="38.9" y="11" transform="matrix(0.7071 -0.7071 0.7071 0.7071 6.331 41.2843)" width="28.3" height="4"/>
</g>
</svg>
