<svg viewBox="0 0 66 66" xmlns="http://www.w3.org/2000/svg"><path d="M33 66c-8.9 0-17.2-3.4-23.3-9.7C3.4 50.2 0 41.9 0 33S3.4 15.8 9.7 9.7C15.8 3.4 24.1 0 33 0s17.2 3.4 23.3 9.7C62.6 15.8 66 24.1 66 33c0 8.8-3.4 17.1-9.7 23.3C50.2 62.6 41.9 66 33 66ZM33 4c-7.7 0-15 3-20.5 8.5C7 18 4 25.3 4 33c0 7.7 3 15 8.5 20.5C18 59 25.3 62 33 62s15-3 20.5-8.5C59 48 62 40.7 62 33s-3-15-8.5-20.5C48 7 40.7 4 33 4Z"/><rect x="29" y="43" width="4" height="6"/><path d="M29 41v-2c0-7.1 4.9-9.7 5.2-9.8 1.7-0.9 4.8-3.1 4.8-5.2 0-3.1-2.3-5-6-5 -6 0-6 2-6 3v1h-4v-1c0-3.2 1.7-7 10-7 5.9 0 10 3.7 10 9 0 4.9-5.8 8.1-7 8.7l-0.1 0.1C34.8 33.5 33 35.2 33 39v2H29Z"/></svg>