<?xml version="1.0" encoding="utf-8"?>
<!-- Generator: Adobe Illustrator 21.0.0, SVG Export Plug-In . SVG Version: 6.00 Build 0)  -->
<svg version="1.1" id="Layer_1" xmlns="http://www.w3.org/2000/svg" xmlns:xlink="http://www.w3.org/1999/xlink" x="0px" y="0px"
	 viewBox="0 0 64 64" style="enable-background:new 0 0 64 64;fill:white;" xml:space="preserve">
<g>
	<path d="M32,65.4c-9,0-17.4-3.5-23.7-9.8C1.9,49.3-1.6,40.9-1.6,32c0-9,3.5-17.4,9.8-23.7C14.6,1.9,23-1.6,32-1.6
		c9,0,17.4,3.5,23.7,9.8c6.3,6.3,9.8,14.8,9.8,23.7c0,8.9-3.5,17.4-9.8,23.7C49.4,62,41,65.4,32,65.4L32,65.4z M21,45.9
		c2.5,6.5,6.2,11,8.5,13.4V44.5C26.5,44.7,23.6,45.1,21,45.9z M34.4,59.3c2.3-2.4,6-6.9,8.5-13.4c-2.6-0.8-5.4-1.2-8.5-1.4V59.3z
		 M11.2,51.7c0.2,0.2,0.4,0.4,0.5,0.6c3.2,3.2,7.1,5.6,11.3,7c-2.2-2.8-4.7-6.7-6.6-11.5C13.8,49.1,12.1,50.7,11.2,51.7z M47.5,47.7
		c-1.9,4.9-4.4,8.7-6.6,11.5c4.5-1.5,8.5-4.1,11.8-7.5c-0.7-0.8-1.7-1.8-3.2-2.8C49,48.5,48.3,48.1,47.5,47.7z M3.4,34.4
		c0.4,4.8,2,9.4,4.7,13.4c1.5-1.6,3.7-3.3,6.8-4.9c-0.7-2.8-1.1-5.6-1.3-8.5H3.4z M49.1,43c3.2,1.5,5.4,3.3,6.8,4.9
		c2.7-4,4.3-8.6,4.7-13.4H50.4C50.2,37.4,49.8,40.2,49.1,43z M18.5,34.4c0.1,2.3,0.5,4.6,1,6.8c3-0.9,6.4-1.4,10-1.6v-5.2H18.5z
		 M34.4,39.6c3.6,0.2,7,0.7,10,1.6c0.5-2.2,0.9-4.5,1-6.8h-11V39.6z M60.6,29.6c-0.4-4.8-2-9.4-4.7-13.4c-1.4,1.5-3.6,3.3-6.8,4.9
		c0.7,2.8,1.1,5.6,1.3,8.5L60.6,29.6z M29.6,29.6v-5.2c-3.6-0.2-7-0.7-10-1.6c-0.5,2.2-0.9,4.5-1,6.8H29.6z M13.6,29.6
		c0.2-2.9,0.6-5.8,1.3-8.5c-3.2-1.5-5.4-3.3-6.8-4.9c-2.7,4-4.3,8.6-4.7,13.4H13.6z M45.5,29.6c-0.1-2.3-0.5-4.6-1-6.8
		c-3,0.9-6.4,1.4-10,1.6v5.2H45.5z M34.4,19.5c3.1-0.2,6-0.6,8.5-1.4c-2.5-6.5-6.3-11-8.5-13.4V19.5z M21,18.1
		c2.6,0.8,5.4,1.2,8.5,1.4V4.7C27.3,7.1,23.5,11.6,21,18.1z M11.2,12.3c0.7,0.8,1.7,1.8,3.2,2.8c0.6,0.4,1.3,0.8,2.1,1.2
		c1.9-4.9,4.4-8.8,6.6-11.5c-4.2,1.4-8.1,3.8-11.3,7C11.6,11.9,11.4,12.1,11.2,12.3z M41,4.8c2.2,2.8,4.7,6.7,6.6,11.5
		c2.7-1.4,4.3-2.9,5.3-4c-0.2-0.2-0.4-0.4-0.5-0.6C49.1,8.5,45.2,6.1,41,4.8z"/>
</g>
</svg>
