<svg xmlns="http://www.w3.org/2000/svg" viewBox="0 0 184.8 67.3"><style type="text/css"> .st0{fill:#000000;} </style><path class="st0" d="M9.5 0.9l-9.5 65.5h49.1l1.6-11.7H18.5l2.2-16.2h23.2L45.6 26.8h-23L24.6 12.6h26.5l1.6-11.7C52.7 0.9 9.5 0.9 9.5 0.9z"/><path class="st0" d="M150 66.4l-3.1-65.5h-17.1l-22.5 41.6 -10.4-41.6h-17.6l-21.6 65.5h16.5l14.2-43.3 10.8 43.3h10.1l22.7-41.9 1.8 41.9C133.9 66.4 150 66.4 150 66.4z"/><path class="st0" d="M175.2 44.4l7.5-26.1c1.4-4.6 2.1-7.8 2.1-11.2 0-2.8-1.8-7.1-8.3-7.1 -5.9 0-8.3 3.5-9.1 5.5 -0.8 2.1-1.2 6.6-1.3 8.5l-0.9 30.4H175.2zM168.3 67.3c5.4 0 9.9-4.5 9.9-9.9 0-5.4-4.5-9.9-9.9-9.9s-9.9 4.5-9.9 9.9C158.4 62.8 162.9 67.3 168.3 67.3z"/></svg>