<?xml version="1.0" encoding="UTF-8" standalone="no"?>
<!-- Created with Inkscape (http://www.inkscape.org/) -->
<svg xmlns:dc="http://purl.org/dc/elements/1.1/" xmlns:cc="http://creativecommons.org/ns#" xmlns:rdf="http://www.w3.org/1999/02/22-rdf-syntax-ns#" xmlns:svg="http://www.w3.org/2000/svg" xmlns="http://www.w3.org/2000/svg" xmlns:sodipodi="http://sodipodi.sourceforge.net/DTD/sodipodi-0.dtd" xmlns:inkscape="http://www.inkscape.org/namespaces/inkscape" width="83.295036" height="247.63838" id="svg2" version="1.1" inkscape:version="0.48.2 r9819" sodipodi:docname="AJAX.svg">
  <defs id="defs4"/>
  <sodipodi:namedview id="base" pagecolor="#ffffff" bordercolor="#666666" borderopacity="1.0" inkscape:pageopacity="0.0" inkscape:pageshadow="2" inkscape:zoom="0.98994949" inkscape:cx="-234.85628" inkscape:cy="207.30146" inkscape:document-units="px" inkscape:current-layer="layer1" showgrid="false" fit-margin-top="5" fit-margin-left="5" fit-margin-right="5" fit-margin-bottom="5" inkscape:window-width="1280" inkscape:window-height="1004" inkscape:window-x="-8" inkscape:window-y="-8" inkscape:window-maximized="1"/>
  <metadata id="metadata7">
    <rdf:RDF>
      <cc:Work rdf:about="">
        <dc:format>image/svg+xml</dc:format>
        <dc:type rdf:resource="http://purl.org/dc/dcmitype/StillImage"/>
        <dc:title/>
      </cc:Work>
    </rdf:RDF>
  </metadata>
  <g inkscape:label="Calque 1" inkscape:groupmode="layer" id="layer1" transform="translate(-335.30026,-406.01567)">
    <path style="fill:#d41115;fill-opacity:1;stroke:none" d="m 390.58125,411.01567 c -8.33376,19.69797 -22.53782,70.30265 -10.85914,102.0254 9.29646,25.25198 2.61923,53.61923 -1.6141,61.96432 -3.7066,7.30676 -4.70636,26.84219 -1.6689,33.24256 5.49059,-23.69742 41.1893,-38.38039 36.78002,-79.75546 -1.94006,-18.20474 -22.69613,-73.3556 -22.63788,-117.47682 z" id="path2998" inkscape:connector-curvature="0" sodipodi:nodetypes="csscsc"/>
    <path style="fill:#010b5f;fill-opacity:1;stroke:none" d="m 362.04444,492.58549 c 0.35451,15.09364 -3.37516,28.3825 -5.00173,36.59085 -1.49912,7.5652 -7.6358,25.24704 -13.95444,40.68134 -2.96195,7.23504 -3.01774,19.64414 -2.60232,22.15974 1.61357,9.77106 6.13252,18.19781 8.67904,22.54398 9.52506,16.25649 27.52666,29.7995 37.37565,34.09265 -8.5863,-9.84899 -19.33499,-27.08619 -20.96067,-49.75002 -1.6651,-23.21346 12.45878,-30.31245 9.59645,-61.36675 -1.96131,-21.27885 -11.86929,-42.93149 -13.13198,-44.95179 z" id="path3768" inkscape:connector-curvature="0" sodipodi:nodetypes="csssscssc"/>
  </g>
</svg>