<?xml version="1.0" encoding="utf-8"?>
<!-- Generator: Adobe Illustrator 21.0.0, SVG Export Plug-In . SVG Version: 6.00 Build 0)  -->
<svg version="1.1" id="Calque_1" xmlns:sketch="http://www.bohemiancoding.com/sketch/ns"
	 xmlns="http://www.w3.org/2000/svg" xmlns:xlink="http://www.w3.org/1999/xlink" x="0px" y="0px" viewBox="0 0 31.7 45.1"
	 style="enable-background:new 0 0 31.7 45.1;" xml:space="preserve">
<style type="text/css">
	.st0{fill:#202F55;}
	.st1{fill:#FA4A4A;}
</style>
<title>Imported Layers</title>
<desc>Created with Sketch.</desc>
<g id="Page-1" sketch:type="MSPage">
	<g id="_x30_4---variante-logo-" transform="translate(-31.944318, -19.000000)" sketch:type="MSArtboardGroup">
		<g id="Imported-Layers" transform="translate(32.284010, 19.500000)" sketch:type="MSLayerGroup">
			<path id="Fill-16" sketch:type="MSShapeGroup" class="st0" d="M15.6,21h1.7c4.4,0,6.8-2.4,6.8-6.8c0-4.1-2.5-6-8-6h-0.5l0-3.4
				h2.8c2.7,0,5.4,0.8,7.4,2.3c1.7,1.2,3.7,3.5,3.7,7.1c0,2.4-0.8,8-8.4,10l10.2,15l-4.7,1.6l-11-16.2L15.6,21"/>
			<path id="Fill-17" sketch:type="MSShapeGroup" class="st1" d="M9.9-0.5h5.7v45.1H9.9V-0.5z"/>
			<path id="Fill-18" sketch:type="MSShapeGroup" class="st0" d="M-0.3,4.7h5.7v35.2h-5.7V4.7z"/>
		</g>
	</g>
</g>
</svg>
