<svg xmlns="http://www.w3.org/2000/svg" viewBox="0 0 1337.3 929.9"><style type="text/css"> .st0{fill:#E50040;} .st1{fill:#C4CF00;} .st2{fill:#FFFFFF;} </style><path class="st0" d="M1054 865.1l0.8-80.8c34.9 18.5 89 30.6 124.9 30.6 43.7 0 61.9-13.3 61.9-39.7 0-27-20.9-35-70.5-47.1 -54.4-13.2-122-28.8-122-117.2 0-80.5 57.5-125.6 157.2-125.6 49.7 0 83.3 6.4 110.7 13.5l-6.6 70.9c-24.8-6-59.8-12-96.5-12 -51.7 0-69.7 14.1-69.7 40.6 0 26.3 22.8 36.7 68.5 48.1 92.9 23.2 124.6 56.1 124.6 118.4 0 80.3-66.3 124.5-158.6 124.5C1132.2 889.3 1092.5 881.1 1054 865.1z"/><path class="st1" d="M837 487c69.8 0 137 5.6 168.9 56.7 145.4-220 157.6-472.1 157.6-472.1 -317.3-55.3-535.3-12.6-685 75.6 4.1 11.9 6.3 24.7 6.3 38 0 12.4-1.9 24.4-5.4 35.6 15.2 19.9 24.3 44.9 24.3 72 0 15.6-3.2 30.6-8.8 44.5 4.8 1.3 9.6 2.8 14 4.3 0.5 0.3 1.1 0.5 1.7 0.7 0.2 0.1 0.2 0.1 0.3 0.2 9.2 3.5 17.6 7.5 25.4 11.8C657.6 303.5 753.2 298 753.2 298c-63.9 24.9-121 55.7-172.1 89.9 13 13 20.1 23.5 21.5 25.6v0.1l0.2 0.2c0.6 0.7 0.9 1.4 1.2 2 0 0.1 0 0.4 0.1 0.5 0.1 0.7 0.4 1.3 0.4 1.9 0.2 0.3 0.2 0.5 0.4 0.8 0.2 1.6 0.2 3.4 0 5 -0.2 0.3-0.2 0.5-0.4 0.7 0 0.6-0.3 1.2-0.4 1.8 -0.1 0.3-0.1 0.4-0.1 0.6 -0.3 0.5-0.7 1.2-1.2 2 0 0-0.1 0.1-0.2 0.2 0 0 0 0 0 0.1 -1.9 2.9-14.8 22.3-39.9 41.9 -11.4 8.8-25.1 17.6-41.5 24.9 -0.5 0.2-0.9 0.4-1.2 0.5 -11.6 5.1-24.7 9.5-39.1 12.3 28.7 20.6 50 51 59 86.3h58.9c3.8 0 7.3 1.6 10.1 4.1 2.6 2.7 4.1 6.4 4.1 10.1v224.3c35-9.9 67.7-22 98.4-35.7V487H837z"/><path class="st0" d="M808.9 885.2h-97.6V487H837c96.6 0 188.2 10.6 188.2 137.6 0 124.7-104.4 156.5-216.3 143.4V885.2L808.9 885.2zM808.9 555.3v145.1c86.9 5.2 116.1-14.2 116.1-75.2 0-52.9-27.2-69.9-78.1-69.9L808.9 555.3 808.9 555.3z"/><path d="M608.8 599.4c-2.7-2.5-6.3-4.1-10.1-4.1h-58.9c-9-35.3-30.3-65.7-59-86.3 14.5-2.8 27.5-7.2 39.1-12.3 0.4-0.1 0.7-0.3 1.2-0.5 16.4-7.3 30.1-16.1 41.5-24.9 25.1-19.6 38-39 39.9-41.9 0-0.1 0-0.1 0-0.1 0.1-0.1 0.2-0.2 0.2-0.2 0.6-0.8 0.9-1.5 1.2-2 0-0.2 0-0.3 0.1-0.6 0.1-0.6 0.4-1.2 0.4-1.8 0.2-0.2 0.2-0.5 0.4-0.7 0.2-1.7 0.2-3.4 0-5 -0.2-0.3-0.2-0.4-0.4-0.8 0-0.5-0.3-1.2-0.4-1.9 -0.1-0.1-0.1-0.4-0.1-0.5 -0.3-0.6-0.7-1.3-1.2-2l-0.2-0.2v-0.1c-1.9-3-14.8-22.3-39.9-42 -13.7-10.7-31-21.2-51.8-29 -0.1-0.1-0.1-0.1-0.3-0.2 -0.6-0.3-1.1-0.4-1.7-0.7 -4.5-1.5-9.2-3.1-14-4.3 5.5-13.9 8.8-28.9 8.8-44.5 0-27.1-9.1-52-24.3-72 3.5-11.2 5.4-23.2 5.4-35.6 0-54.3-36.8-99.9-86.7-113.2 -13.8-41.9-53.1-72-99-72 -44.2 0-82.1 27.7-97.3 66.8 -3.5-0.4-7.1-0.6-10.7-0.6 -57.6 0-104.6 47.1-104.7 105.5 0 13.1 2.4 25.7 7 37.5 -27.1 19.7-45 52-45 88.3s17.9 68.6 45 88.4c-1.7 0.6-3.4 1.3-5 1.8 -0.2 0-0.5 0-0.6 0.2l-0.4 0.1c-19.4 7.2-35.6 17-48.1 26.9C16 432.8 4.3 450.5 2.5 453.3c-0.1 0.2-0.1 0.3-0.3 0.4 -0.3 0.6-0.6 1.2-1 1.9 -0.1 0.2-0.1 0.5-0.1 0.7 -0.5 0.5-0.5 1.2-0.8 1.9v0.5c-0.4 1.7-0.4 3.4 0 5.2v0.6c0.3 0.7 0.3 1.3 0.8 1.9 0 0.2 0 0.4 0.1 0.6 0.4 0.6 0.7 1.3 1 1.9 0.2 0.1 0.2 0.1 0.3 0.3 1.7 2.8 13.5 20.6 36.7 38.5 10.5 8.3 23.5 16.5 39 23.4 9.1 3.9 18.8 7.3 29.3 9.9l-49.6 12.6c-26.6 7.1-44.1 31.1-44.1 57.5 0 4.9 0.6 9.9 1.9 14.9 3.3 12.6 10.2 23.1 19.4 30.7 -15 11.2-24.3 28.8-24.3 48.1 0 4.9 0.6 10 1.9 15.1 4 15.2 13.5 27.4 25.6 35.3 -9.3 10.7-14.8 24.6-14.8 39.4 0 4.9 0.6 9.9 1.9 15.1 5.9 23.3 24.8 39.6 47 43.3 -1.5 4.7-2.2 9.7-2.2 14.8 0 4.1 0.3 8.2 1.4 12.3 5.6 22.2 25.5 37 47.3 37 4 0 8.1-0.4 12.1-1.6l96.4-24.5c33 24.4 73.6 38.9 117.8 38.9 58.3-0.1 111.1-25.4 147.6-65.9h105.8c3.8 0 7.3-1.6 10.1-4.1 2.6-2.6 4.1-6.4 4.1-10.2v-240C612.8 605.9 611.4 602.1 608.8 599.4zM224.4 862.3l-100.1 25.6c-1.9 0.6-3.6 0.7-5.3 0.7 -9.2 0-17.6-6.2-20.1-15.7 -0.6-1.8-0.6-3.5-0.6-5.3 0-9.2 6-17.7 15.6-20.2l100-25.5c2.1-0.4 3.6-0.7 5.2-0.7 9.3 0 17.9 6.3 20.1 15.6 0.5 1.7 0.7 3.6 0.7 5.3C240 851.3 233.8 859.8 224.4 862.3zM217.5 791.4L90 824.2c-2.7 0.7-5.5 1-7.8 1 -13.6 0-26.1-9.1-29.6-23 -0.7-2.6-1.1-5.3-1.1-7.8 0-13.7 9.2-26.2 22.9-29.8l9.8-2.5c0-0.1 0.3-0.1 0.3-0.1L202 731.8c2.8-0.6 5.5-1 8-1 13.4 0 25.9 9.2 29.4 23 0.6 2.7 0.9 5.2 1.1 7.9C240.3 775.2 231.3 787.9 217.5 791.4zM240.3 671.6c-1.4 12.5-9.8 23.5-22.9 26.9l-22.4 5.7L77.2 734.5c-2.6 0.7-5.2 0.9-7.8 0.9 -13.4 0-25.8-9-29.5-22.9 -0.6-2.8-0.8-5.3-0.8-7.8 0-13.7 9-26.2 22.7-29.9l21.5-5.5c1.4-0.2 2.8-0.5 4.1-0.9l116-29.9c2.3-0.4 4.4-0.7 6.7-0.7 13.4 0 25.9 9.1 29.4 23 0.6 1.8 0.6 3.8 0.9 5.7 0 0.6 0.2 1.5 0.2 2.1C240.5 669.6 240.3 670.6 240.3 671.6zM240.3 582.7c-2.6 10.8-10.8 19.8-22.1 22.8l-20.4 5.2c-1 0.3-1.9 0.5-3 0.7L78 641.4c-2.1 0.3-3.7 0.6-5.4 0.6 -13.5 0-26.1-9.3-29.8-23.1 -0.6-2.8-0.8-5.4-0.8-7.8 0-13.7 9.2-26.3 23-29.9l137.9-35.4c2.7-0.7 5.3-1 7.7-1 13.5 0 26.1 9.2 29.5 23.1 0.3 0.3 0.3 0.5 0.3 0.8 0.6 2.3 0.7 4.7 0.7 6.9C241.1 578.1 240.9 580.4 240.3 582.7zM466 851.1c-31 31-73.9 50.3-120.7 50.3 -33.3 0-64-9.5-90.1-26.1 8-8.9 12.9-20.8 12.9-33.3 0-4-0.4-8.2-1.6-12.2v-0.2c-0.4-1.4-0.8-2.6-1.2-4.1 7.6 2.2 15.7 3.4 23.8 3.4 29.9 0 56.5-15 72.6-37.9 16.5 30.6 48.7 51.4 85.6 51.4 10.9 0 21.5-1.8 31.4-5.2C474.6 842 470.5 846.6 466 851.1zM447.3 813.9c-38.2 0-69.2-31.1-69.2-69.7v-5c0-0.1 0-0.1 0-0.1v-141c0-7.8-6.2-14.1-14.2-14.1 -7.7 0-13.9 6.3-13.9 14.1v141c-0.1 33.9-27.4 61.2-60.9 61.3 -7 0-13.6-1.2-19.7-3.4V633.7c0-27.5 8.9-52.8 23.6-73.5 3.8-5.1 8.1-10.1 12.6-14.7 4.8-4.9 10.1-9.3 15.7-13.4 20.2-14.6 44.8-23 71.6-23 3.9 0 7.9 0.1 11.7 0.7 4.2 0.7 8.4 1.3 12.9 1.7 24.3 4.9 45.9 17.1 62.8 34 22.5 22.7 36.2 53.7 36.2 88.2v96.1c0 13.5-1.6 26.6-4.6 39.1C501.9 795.2 476.8 813.9 447.3 813.9zM584.7 835.4h-70.2c10.9-17.7 19.3-37.1 24.4-57.8 0 0 0-0.1 0.1-0.2 0.3-1.1 0.5-2.2 0.6-3.2 3.3-14.2 5.1-29 5.1-44.3v-96.1c0-3.4-0.1-6.7-0.2-10h40.3L584.7 835.4 584.7 835.4z"/><path class="st0" d="M438.6 220.2c0.8 6 1.1 12.1 1.1 18.5 0 34.8-11.1 67.2-29.9 93.6 10-1.6 20.4-2.4 31.5-2.4 8.7 0 17.4 0.6 25.5 1.7 5.7-11.8 8.8-24.8 8.8-38.8C475.5 262.8 461 236.5 438.6 220.2zM169.1 167.4c-13 20.6-20.5 45-20.6 71.3 0.2 36.6 14.6 69.6 38.6 93.7 23.8 24.1 56.6 38.8 92.9 38.8 31.8 0 60.6-11.3 83.3-29.9 -4.9 0.2-9.7 0.6-14.7 0.6C251.6 341.9 172.7 264.4 169.1 167.4zM357.3 163.5c0-11-1.8-21.4-5.3-31.1 -8.4 23.2-20.9 44.3-37.1 62.4 4.5 0.4 9.1 0.6 13.6 0.6 8.1 0 16.1-0.6 23.8-1.8C355.6 184.2 357.3 174.1 357.3 163.5zM294.8 92.8l-0.7 42.5c14.1-2.1 26.2-11 32.6-23.6C315.7 104.7 304.1 97.6 294.8 92.8zM197.4 168.3c1.2 28.4 10.3 54.8 25.2 77.2 12.7 6.8 27.2 10.7 42.9 10.7 25.3-0.1 48-10.4 64.8-27.3 1.7-1.6 3.2-3.4 5-5.2 -2.2 0-4.5 0-6.7 0C277.1 223.8 230.7 202.6 197.4 168.3zM385.3 159.4c0 1.3 0 2.7 0 4.1 0 16.2-3.1 31.6-8.7 45.7 -0.5 1.8-1.2 3.5-2.2 5 -19.2 41.5-60.8 70.2-108.9 70.2 -2.2 0.1-4-0.1-5.8-0.1 24.9 18.5 55.6 29.2 88.9 29.2 15.3 0 30.4-2.4 44.1-6.7 11.9-19.8 18.9-43.1 18.9-68.1C411.5 208.9 401.9 181.5 385.3 159.4zM357 97.7c14.3 9.5 25 17.1 25 17.1l0.8 0.7c21.6 18.3 38.1 42.1 47.7 69.1l0.4-1.2c9 3.6 17.3 8.4 25 14.1 0.5-4 0.7-8 0.7-12.4 0-24.4-9.9-46.5-25.7-62.6 -16-16-37.9-26-62.1-26 -4.1 0-8 0.3-11.9 0.9C357 97.6 357 97.6 357 97.7zM280 58c5.8 0.2 9.6 1.6 14.3 3.3 4.6 1.9 9.3 4.2 14.6 6.8 4.9 2.7 10.4 5.8 15.8 8.9 12.9-5.2 26.7-8.3 41.4-8.6 -13.2-23.8-38.1-40-66.9-40 -34.3-0.1-63.4 22.9-72.8 54.3 13.8-8.8 28-17 39.4-21.5C270.4 59.6 274.4 58.1 280 58zM245.2 104.2c3.5 11 10.7 20.2 20.6 25.8l0.9-38c-5.1 2.6-11 6-17.1 9.5C248.2 102.5 246.8 103.3 245.2 104.2zM281.9 188.2c8.5-7.8 16.4-16.6 23.2-26.2 -5.6 1.4-11.5 2.1-17.5 2.1 -29.9 0-55.7-18.3-66.6-44.5 -5.5 3.7-10.5 7.2-14.6 10 -1.2 0.7-2 1.3-3 2C222.8 158.1 250.1 178.2 281.9 188.2zM122.6 205.9l0.7 1.9c7.1-36.7 26.5-69.1 53.7-92.2l1-0.7c0.1 0 11.6-8.2 26.8-18.5 -0.4-0.1-0.7-0.3-1.2-0.7 -4.1-0.7-8.3-1.1-12.7-1.1 -42.4 0.2-76.3 34.5-76.3 77.1 0 12 2.6 23.4 7.5 33.5L122.6 205.9zM120.3 238.7c0-4.9 0.4-9.6 0.8-14.3 -0.9 1-2 1.9-3.2 2.6 -24.7 13.7-41.3 40.1-41.3 70.5 0.2 40 29 73.2 67.1 79.4 2.2 0 4.4-0.2 6.9-0.2 23.5 0 44.4 4.3 62.3 10.9l2.4-1.8C159.3 360.6 120.3 304.2 120.3 238.7z"/><path class="st1" d="M268.6 546.2V412.6c0-6.9 5.5-12.5 12.2-12.5 2.5 0 5 0.9 6.9 2.3 3.2 2.2 5.3 6 5.3 10.1v106L268.6 546.2z"/><path class="st1" d="M312.8 420.5c0 0 35.8-61.5 134.9-61.5 59.3 0 102.1 33.7 122.9 61.5 0 0-34 62.8-130.3 62.8C440.3 483.4 358.6 487.1 312.8 420.5z"/><path class="st1" d="M32.8 462.1c0 0 36.7-56.4 122.1-56.4 42.1 0 71.3 19.4 85.4 28.5v54.2c-7.4 5.1-36.5 29.7-86.7 29.7C153.6 518.2 78.8 523.2 32.8 462.1z"/><path class="st2" d="M511.5 769c3-12.5 4.6-25.6 4.6-39.1v-96.1c0-34.5-13.7-65.5-36.2-88.2 -17-16.9-38.5-29.1-62.8-34 -4.4-0.4-8.6-1-12.9-1.7 -3.8-0.5-7.8-0.7-11.7-0.7 -26.8 0-51.4 8.4-71.6 23 -5.6 4.2-10.8 8.5-15.7 13.4 -4.6 4.6-8.8 9.6-12.6 14.7 -14.8 20.6-23.6 45.9-23.6 73.5v163.3c6.1 2.3 12.7 3.4 19.7 3.4 33.5-0.2 60.8-27.4 60.9-61.3v-141c0-7.8 6.2-14.1 13.9-14.1 8 0 14.2 6.3 14.2 14.1v141c0 0 0 0 0 0.1v5c0 38.6 31 69.7 69.2 69.7C476.3 813.9 501.5 795.2 511.5 769z"/><path class="st2" d="M584.3 623.7H544c0.1 3.3 0.2 6.6 0.2 10v96.1c0 15.3-1.7 30.1-5.1 44.3 -0.1 1-0.3 2.1-0.6 3.2 -0.1 0.1-0.1 0.2-0.1 0.2 -5.1 20.6-13.5 40.1-24.4 57.8h70.2L584.3 623.7 584.3 623.7z"/><path class="st2" d="M344.9 901.4c46.8 0 89.7-19.2 120.7-50.3 4.5-4.5 8.6-9.1 12.7-13.9 -9.9 3.3-20.5 5.2-31.4 5.2 -36.8 0-69.1-20.8-85.6-51.4 -16.1 22.9-42.7 37.9-72.6 37.9 -8.2 0-16.2-1.2-23.8-3.4 0.4 1.5 0.8 2.7 1.2 4.1v0.2c1.1 4 1.6 8.2 1.6 12.2 0 12.5-4.9 24.4-12.9 33.3C280.9 891.8 311.5 901.4 344.9 901.4z"/><path class="st2" d="M239.9 666.5c-0.3-1.9-0.4-3.9-0.9-5.7 -3.5-13.9-16-23-29.4-23 -2.4 0-4.4 0.3-6.7 0.7l-116 29.9c-1.2 0.3-2.7 0.7-4.1 0.9l-21.5 5.5c-13.7 3.7-22.7 16.2-22.7 29.9 0 2.5 0.2 5.1 0.8 7.8 3.7 13.9 16.1 22.9 29.5 22.9 2.6 0 5.2-0.2 7.8-0.9l117.8-30.3 22.4-5.7c13-3.4 21.5-14.5 22.9-26.9 0-1 0.2-2 0.2-3C240.1 668.1 239.9 667.2 239.9 666.5z"/><path class="st2" d="M239 753.8c-3.5-13.8-16-23-29.4-23 -2.6 0-5.3 0.3-8 1L84.1 762c0 0-0.3 0-0.3 0.1l-9.8 2.5c-13.7 3.6-22.9 16.1-22.9 29.8 0 2.6 0.4 5.2 1.1 7.8 3.5 13.9 16 23 29.6 23 2.4 0 5.1-0.3 7.8-1l127.5-32.8c13.8-3.6 22.9-16.3 23-29.7C239.9 759 239.6 756.5 239 753.8z"/><path class="st2" d="M239.9 568.7c0-0.3 0-0.5-0.3-0.8 -3.4-13.9-16-23.1-29.5-23.1 -2.3 0-5 0.3-7.7 1L64.5 581.2c-13.8 3.6-23 16.2-23 29.9 0 2.4 0.3 5.1 0.8 7.8C46 632.7 58.6 642 72.1 642c1.8 0 3.4-0.3 5.4-0.6l116.8-30c1.1-0.3 2-0.4 3-0.7l20.4-5.2c11.2-2.9 19.5-12 22.1-22.8 0.6-2.3 0.7-4.5 0.7-7C240.7 573.4 240.5 571 239.9 568.7z"/><path class="st2" d="M218.7 821.1c-1.6 0-3.2 0.3-5.2 0.7l-100 25.5c-9.5 2.5-15.6 11.1-15.6 20.2 0 1.8 0 3.4 0.6 5.3 2.4 9.5 10.9 15.7 20.1 15.7 1.7 0 3.4 0 5.3-0.7L224 862.2c9.4-2.4 15.6-11 15.6-20.2 0-1.7-0.2-3.6-0.7-5.3C236.6 827.4 228 821.1 218.7 821.1z"/></svg>