<?xml version="1.0" standalone="no"?>
<!DOCTYPE svg PUBLIC "-//W3C//DTD SVG 20010904//EN"
 "http://www.w3.org/TR/2001/REC-SVG-20010904/DTD/svg10.dtd">
<svg version="1.0" xmlns="http://www.w3.org/2000/svg"
 width="16.000000pt" height="16.000000pt" viewBox="0 0 16.000000 16.000000"
 preserveAspectRatio="xMidYMid meet">
<metadata>
Created by potrace 1.11, written by Peter Selinger 2001-2013
</metadata>
<g transform="translate(0.000000,16.000000) scale(0.001415,-0.001415)"
fill="#000000" stroke="none">
<path d="M2576 11296 c-21 -7 -49 -22 -63 -34 l-24 -21 37 -73 c20 -40 73
-127 118 -193 82 -122 341 -470 447 -602 l59 -72 -48 28 c-26 16 -81 49 -122
75 -156 97 -253 156 -256 156 -2 0 -32 17 -66 38 -35 21 -88 52 -118 69 -55
30 -91 50 -230 128 -194 108 -475 238 -625 287 -258 85 -369 65 -367 -69 3
-127 169 -340 442 -568 151 -125 525 -399 595 -435 23 -12 145 -93 145 -96 0
-2 -44 13 -97 32 -99 37 -375 134 -448 159 -134 45 -489 150 -535 158 -14 3
-52 12 -85 20 -33 9 -76 18 -95 21 -19 3 -71 12 -115 19 -98 16 -247 15 -297
-2 -76 -25 -97 -91 -57 -178 29 -64 53 -96 130 -174 123 -123 332 -267 583
-401 147 -78 432 -217 556 -270 63 -27 116 -51 119 -53 5 -5 -46 0 -149 15
-87 12 -121 16 -210 25 -36 3 -76 8 -90 10 -25 5 -119 13 -215 20 -72 5 -201
15 -270 21 -74 6 -485 6 -540 -1 -38 -4 -97 -13 -140 -21 -46 -9 -122 -37
-141 -53 -83 -68 -44 -159 117 -271 54 -37 205 -117 299 -158 200 -88 601
-224 875 -297 55 -15 105 -31 110 -37 7 -6 7 -9 0 -7 -10 3 -167 -9 -215 -16
-14 -2 -50 -6 -80 -10 -30 -3 -66 -8 -80 -10 -14 -2 -45 -7 -70 -10 -25 -4
-56 -8 -70 -10 -14 -2 -70 -11 -125 -20 -55 -9 -118 -20 -140 -25 -22 -5 -56
-12 -75 -15 -19 -3 -69 -15 -110 -26 -41 -11 -85 -22 -98 -25 -99 -21 -272
-106 -319 -156 -52 -55 -31 -132 58 -212 104 -94 302 -165 534 -192 28 -4 53
-8 56 -10 3 -1 57 -6 120 -10 63 -3 115 -7 116 -8 1 -1 -19 -13 -45 -26 -264
-136 -383 -275 -332 -387 49 -108 205 -226 375 -283 l70 -24 -32 -9 c-18 -5
-47 -22 -64 -38 -42 -38 -51 -105 -21 -172 73 -165 328 -393 764 -682 l117
-77 -21 -52 c-31 -76 -41 -132 -33 -184 10 -65 68 -121 153 -146 34 -11 62
-20 62 -21 0 -1 -9 -23 -20 -47 -22 -51 -27 -120 -12 -160 25 -61 124 -125
245 -158 26 -7 47 -18 47 -24 0 -6 -7 -33 -15 -60 -36 -117 -9 -220 73 -283
41 -31 136 -68 200 -77 19 -2 36 -7 39 -10 3 -3 12 -40 19 -81 29 -168 107
-265 239 -297 60 -15 141 -17 209 -4 35 7 35 6 47 -36 44 -166 105 -256 197
-295 44 -18 119 -24 168 -13 42 10 54 2 54 -36 0 -11 14 -48 30 -82 48 -95
136 -144 260 -144 54 0 145 13 207 31 31 9 35 7 85 -46 108 -112 228 -148 379
-113 58 13 185 70 259 116 25 15 40 21 34 13 -133 -176 -170 -225 -174 -229
-9 -9 -311 -416 -459 -620 -78 -107 -152 -208 -164 -223 -12 -16 -28 -39 -37
-52 -8 -13 -41 -61 -73 -107 -316 -452 -681 -1009 -778 -1188 -11 -19 -24 -42
-29 -50 -5 -8 -42 -71 -81 -140 -98 -172 -185 -346 -274 -545 -112 -250 -159
-517 -109 -619 10 -22 24 -41 30 -43 5 -2 44 47 87 109 93 138 213 293 355
458 126 146 434 459 577 585 55 48 116 102 135 119 34 31 259 210 316 253 101
75 168 122 291 203 76 51 150 101 165 111 15 10 30 19 32 19 3 0 29 15 58 34
127 81 646 356 672 356 3 0 34 13 68 29 62 28 160 68 288 118 36 14 79 31 95
38 63 26 381 127 523 165 81 22 180 49 220 61 40 11 78 22 85 23 7 2 23 7 37
13 14 6 52 20 85 32 322 119 746 434 1028 765 23 27 51 58 63 70 52 55 275
354 377 509 221 333 330 527 606 1077 328 654 405 789 493 865 104 89 304 142
413 109 55 -17 161 -55 599 -215 208 -77 381 -139 383 -139 12 0 -134 259
-185 329 -90 125 -113 153 -172 212 -36 36 -85 78 -110 94 -25 16 -50 35 -57
44 -15 21 -31 89 -38 171 -14 144 -41 275 -79 378 -23 63 -92 193 -121 227
-174 204 -387 326 -710 404 -66 16 -142 32 -169 36 -27 3 -52 8 -55 9 -3 2
-32 7 -63 10 -32 3 -82 9 -111 12 -315 34 -820 38 -1079 9 -338 -37 -621 -121
-790 -233 -21 -13 -40 -23 -41 -21 -30 39 -292 371 -309 391 -13 14 -52 62
-88 105 -35 43 -67 80 -70 83 -3 3 -30 34 -60 70 -30 36 -63 74 -73 85 -10 11
-65 72 -120 134 -56 63 -113 127 -127 141 -14 15 -88 94 -165 176 -245 261
-747 758 -995 984 -58 52 -134 122 -170 155 -36 33 -96 87 -135 120 -38 33
-87 76 -110 96 -52 45 -256 219 -281 239 -45 35 -179 145 -184 150 -10 11
-100 80 -260 201 -494 374 -900 612 -1177 690 -89 24 -213 32 -267 15z"/>
</g>
</svg>
