<svg viewBox="0 0 64 64" width="64" height="64" xmlns="http://www.w3.org/2000/svg"><path d="M32 0c-8.5 0-16.6 3.3-22.6 9.4C3.3 15.4 0 23.5 0 32s3.3 16.6 9.4 22.6C15.4 60.7 23.5 64 32 64c8.5 0 16.6-3.3 22.6-9.4 6-6 9.4-14.1 9.4-22.6s-3.3-16.6-9.4-22.6C48.6 3.3 40.5 0 32 0ZM53.2 53.2C47.5 58.9 40 62 32 62c-8 0-15.5-3.1-21.2-8.8C5.1 47.5 2 40 2 32s3.1-15.5 8.8-21.2C16.5 5.1 24 2 32 2c8 0 15.5 3.1 21.2 8.8C58.9 16.5 62 24 62 32S58.9 47.5 53.2 53.2Z"/><rect x="29" y="43" width="2" height="4"/><path d="M32 15c-6 0-9 2-9 6h2c0-1.9 0.8-4 7-4 4.3 0 7 2.4 7 6 0 2.8-3.9 5.3-5.4 6.1C33.4 29.2 29 31.5 29 38v1h2v-1c0-5.3 3.3-7 3.4-7.1C34.7 30.8 41 27.6 41 23 41 18.3 37.3 15 32 15Z"/></svg>