<svg viewBox="0 0 66 66" xmlns="http://www.w3.org/2000/svg"><path d="M25 66v-9.6l-3.4-1.2L15 61.8 4.2 51l6.6-6.6L9.6 41H0V25h9.6l1.2-3.4L4.2 15 15 4.2l6.6 6.6L25 9.6V0h16v9.6l3.4 1.2L51 4.2 61.8 15l-6.6 6.6 1.2 3.4H66v16h-9.6l-1.2 3.4 6.6 6.6L51 61.8l-6.6-6.6L41 56.4V66H25ZM37 62v-8.4l8.6-2.8 5.4 5.4 5.2-5.2 -5.4-5.4 2.8-8.6H62v-8h-8.4l-2.8-8.6 5.4-5.4L51 9.8l-5.4 5.4L37 12.4V4h-8v8.4l-8.6 2.8L15 9.8 9.8 15l5.4 5.4L12.4 29H4v8h8.4l2.8 8.6L9.8 51l5.2 5.2 5.4-5.4 8.6 2.8V62H37Z"/><path d="M33 41c-4.5 0-8-3.5-8-8 0-4.5 3.5-8 8-8 4.5 0 8 3.5 8 8C41 37.5 37.5 41 33 41ZM33 29c-2.2 0-4 1.8-4 4s1.8 4 4 4 4-1.8 4-4S35.2 29 33 29Z"/></svg>