<?xml version="1.0" encoding="utf-8"?>
<!-- Generator: Adobe Illustrator 21.0.0, SVG Export Plug-In . SVG Version: 6.00 Build 0)  -->
<svg version="1.1" id="Layer_1" xmlns="http://www.w3.org/2000/svg" xmlns:xlink="http://www.w3.org/1999/xlink" x="0px" y="0px"
	 viewBox="0 0 50 50" style="enable-background:new 0 0 50 50;" xml:space="preserve">
<style type="text/css">
	.st0{fill:#000000;}
</style>
<path class="st0" d="M9.3,27.4l3.3,0.4c0.3,1.3,0.8,2.5,1.5,3.7l-2,2.5l3.9,3.9l2.5-2c1.1,0.7,2.3,1.2,3.6,1.5l0.4,3.3H28l0.4-3.3
	c1.3-0.3,2.6-0.8,3.7-1.5l2.5,2l3.9-3.9l-2-2.5c0.7-1.2,1.3-2.4,1.6-3.8l3.2-0.3v-5.5l-3.2-0.3c-0.3-1.3-0.9-2.6-1.6-3.8l2-2.5
	l-3.9-3.9l-2.5,2c-1.2-0.7-2.4-1.2-3.8-1.5L28,8.6h-5.5l-0.4,3.3c-1.3,0.3-2.5,0.8-3.6,1.5l-2.5-2l-3.9,3.9l2,2.5
	c-0.7,1.2-1.2,2.4-1.5,3.7l-3.3,0.4V27.4z M11.3,23.6l3-0.3c0.2-2.1,1-4,2.3-5.6l-1.8-2.3l1.4-1.4l2.3,1.8c1.6-1.3,3.5-2,5.5-2.3
	l0.3-3h1.9l0.3,2.9c0,0,0,0,0,0c2.1,0.2,4,1,5.7,2.3c0,0,2.3-1.8,2.3-1.8l1.4,1.4L34,17.6c1.3,1.7,2.1,3.6,2.4,5.7
	c0,0,2.9,0.3,2.9,0.3v1.9l-2.9,0.3c0,0,0,0,0,0c-0.2,2.1-1.1,4-2.4,5.7c0,0,1.8,2.3,1.8,2.3l-1.4,1.4l-2.3-1.8
	c-1.6,1.3-3.6,2.1-5.6,2.3l-0.3,3h-1.9l-0.3-3c-2-0.3-3.9-1-5.5-2.3l-2.3,1.8l-1.4-1.4l1.8-2.3c0,0,0,0,0,0
	c-1.3-1.6-2.1-3.5-2.3-5.6l-3-0.3L11.3,23.6L11.3,23.6z"/>
<path class="st0" d="M23.8,29.7c4.1,1.1,7.7-2.5,6.6-6.6c-0.5-1.8-1.9-3.2-3.7-3.7c-4.1-1.1-7.7,2.5-6.6,6.6
	C20.6,27.8,22.1,29.3,23.8,29.7z M25.3,21.9c1.5,0,2.7,1.2,2.7,2.7s-1.2,2.7-2.7,2.7c-1.5,0-2.7-1.2-2.7-2.7S23.8,21.9,25.3,21.9z"
	/>
</svg>
