<svg viewBox="0 0 64 64" width="64" height="64" xmlns="http://www.w3.org/2000/svg"><path d="M53.1 20.3L59.4 14 50 4.6l-6.3 6.3L39 9.3V0H25v9.3l-4.7 1.6L14 4.6 4.6 14l6.3 6.3L9.3 25H0v14h9.3l1.6 4.7L4.6 50 14 59.4l6.3-6.3L25 54.7V64h14v-9.3l4.7-1.6 6.3 6.3L59.4 50l-6.3-6.3L54.7 39H64V25h-9.3L53.1 20.3ZM62 37h-8.7l-2.4 7.3L56.6 50 50 56.6l-5.7-5.7L37 53.3V62H27v-8.7l-7.3-2.4L14 56.6 7.4 50l5.7-5.7L10.7 37H2V27h8.7l2.4-7.3L7.4 14 14 7.4l5.7 5.7L27 10.7V2h10v8.7l7.3 2.4L50 7.4 56.6 14l-5.7 5.7L53.3 27H62V37Z"/><path d="M32 25c-3.9 0-7 3.1-7 7s3.1 7 7 7 7-3.1 7-7S35.9 25 32 25ZM32 37c-2.8 0-5-2.2-5-5s2.2-5 5-5 5 2.2 5 5S34.8 37 32 37Z"/></svg>