<?xml version="1.0" encoding="utf-8"?>
<!-- Generator: Adobe Illustrator 21.0.0, SVG Export Plug-In . SVG Version: 6.00 Build 0)  -->
<svg version="1.1" id="Calque_1" xmlns="http://www.w3.org/2000/svg" xmlns:xlink="http://www.w3.org/1999/xlink" x="0px" y="0px"
	 viewBox="0 0 28.8 28.8" style="enable-background:new 0 0 28.8 28.8;" xml:space="preserve">
<style type="text/css">
	.st0{fill-rule:evenodd;clip-rule:evenodd;fill:#FFFFFF;}
</style>
<path class="st0" d="M8.1,20.4c-0.6-0.2-1-0.6-1.2-1.2c-0.5-1.5-0.7-7.7,0.3-8.9C7.5,9.9,8,9.7,8.5,9.6c2.8-0.3,11.4-0.3,12.4,0.1
	c0.6,0.2,1,0.6,1.2,1.2c0.6,1.5,0.6,7.1-0.1,8.6c-0.2,0.4-0.5,0.7-0.9,0.9C20.2,20.9,9.5,20.9,8.1,20.4z M12.5,17.5
	c1.7-0.9,3.3-1.7,5-2.6c-1.7-0.9-3.3-1.7-5-2.6C12.5,14.1,12.5,15.8,12.5,17.5z"/>
</svg>
