<svg viewBox="0 0 28.8 28.8" xmlns="http://www.w3.org/2000/svg"><style type="text/css">  
	.st0{fill-rule:evenodd;clip-rule:evenodd;fill:#FFFFFF;}
</style><path class="st0" d="M16.9 10.3c0.5 0 1 0 1.5 0 0.1 0 0.1 0 0.2 0V7.8c-0.3 0-0.5-0.1-0.8-0.1 -0.5 0-1 0-1.5 0 -0.8 0-1.5 0.2-2.1 0.7 -0.7 0.5-1.1 1.2-1.3 2.1 -0.1 0.4-0.1 0.7-0.1 1.1 0 0.6 0 1.1 0 1.7v0.2h-2.4v2.8h2.4v7.1h2.9v-7.1h2.4c0.1-0.9 0.2-1.9 0.4-2.8 -0.2 0-0.4 0-0.5 0 -0.7 0-2.2 0-2.2 0s0-1.4 0-2C15.7 10.6 16.2 10.3 16.9 10.3Z"/></svg>