<?xml version="1.0" encoding="utf-8"?>
<!-- Generator: Adobe Illustrator 21.0.0, SVG Export Plug-In . SVG Version: 6.00 Build 0)  -->
<svg version="1.1" id="Calque_1" xmlns="http://www.w3.org/2000/svg" xmlns:xlink="http://www.w3.org/1999/xlink" x="0px" y="0px"
	 viewBox="0 0 28.8 28.8" style="enable-background:new 0 0 28.8 28.8;" xml:space="preserve">
<style type="text/css">
	.st0{fill-rule:evenodd;clip-rule:evenodd;fill:#FFFFFF;}
</style>
<path class="st0" d="M11.6,18.3C9.8,18.2,8.8,17,8.5,16c0.5,0.1,0.9,0.1,1.4,0c0,0,0,0,0,0c-0.9-0.2-1.6-0.7-2.1-1.5
	c-0.3-0.5-0.5-1.1-0.5-1.7c0.5,0.2,0.9,0.4,1.5,0.4c-0.7-0.5-1.2-1.2-1.4-2c-0.2-0.8-0.1-1.6,0.4-2.4c1.8,2.1,4,3.2,6.8,3.4
	c0-0.1,0-0.2-0.1-0.4c-0.1-0.8,0.1-1.5,0.5-2.1c0.5-0.8,1.3-1.3,2.2-1.5c1.1-0.2,2.1,0.1,2.9,0.9c0.1,0.1,0.1,0.1,0.2,0.1
	c0.7-0.1,1.3-0.4,1.9-0.7c0,0,0,0,0,0c0,0,0,0,0,0c-0.3,0.8-0.7,1.4-1.4,1.8c0.6-0.1,1.2-0.2,1.8-0.5c0,0,0,0,0,0
	c-0.1,0.2-0.2,0.3-0.4,0.5c-0.3,0.4-0.7,0.8-1.2,1.1c0,0-0.1,0.1-0.1,0.1c0,0.5,0,1-0.1,1.5c-0.1,1-0.4,2-0.8,2.9
	c-0.4,1-1,1.8-1.8,2.6c-1.3,1.3-2.8,2.1-4.5,2.5c-0.6,0.1-1.2,0.2-1.8,0.2c-1.9,0.1-3.6-0.4-5.3-1.4c0,0,0,0-0.1-0.1
	c1.1,0.1,2.2,0,3.3-0.5C10.5,19,11.1,18.7,11.6,18.3z"/>
</svg>
