<svg viewBox="0 0 28.8 28.8" xmlns="http://www.w3.org/2000/svg"><style type="text/css">  
	.st0{fill:#FFFFFF;}
</style><path class="st0" d="M10.7 13.5C10.7 13.5 10.7 13.5 10.7 13.5c0 0.8 0 2.5 0 2.5s3.1 0 3.3 0c0 0.2-0.3 1.2-1.2 1.8 -0.5 0.4-1.1 0.5-1.8 0.6 -0.5 0-0.9 0-1.3-0.2 -1.4-0.4-2.4-1.7-2.5-3.2 0-0.4 0-0.7 0.1-1.1 0.4-1.8 2.1-3.1 4-2.8 0.9 0.1 1.4 0.5 1.8 0.9 0.6-0.6 1.2-1.2 1.8-1.8 -0.1-0.1-0.5-0.4-1.1-0.8 -0.9-0.5-1.9-0.8-2.9-0.8 -0.2 0-0.4 0-0.6 0 -0.3 0-0.7 0.1-1 0.2C8 9.1 6.8 9.8 6 10.9c-0.8 1-1.3 2.2-1.4 3.5 0 0.6 0 1.1 0.1 1.7 0.3 1.5 1.1 2.7 2.4 3.7 1 0.7 2.1 1.1 3.3 1.2 0.7 0 1.3 0 2-0.2 1.2-0.3 2.2-1 3-2 1.1-1.5 1.4-3.4 1.1-5.2C14.6 13.5 12.7 13.5 10.7 13.5Z"/><polygon class="st0" points="23.9 13.6 21.8 13.6 21.8 11.5 21.8 11.4 21.8 11.4 20.2 11.4 20.2 11.4 20.2 11.5 20.2 13.6 18.1 13.6 18 13.6 18 13.6 18 15.2 18 15.2 18.1 15.2 20.2 15.2 20.2 17.3 20.2 17.4 20.2 17.4 21.8 17.4 21.8 17.4 21.8 17.3 21.8 15.2 23.9 15.2 24 15.2 24 15.2 24 13.6 24 13.6"/></svg>