<svg viewBox="0 0 20.3 14.6" xmlns="http://www.w3.org/2000/svg" fill="white"><path d="M17.8 1.8C15.3-0.1 12.9 0 12.9 0l-0.3 0.3c2.9 0.9 4.3 2.2 4.3 2.2 -1.8-0.9-3.5-1.5-5.2-1.6 -1.2-0.2-2.4-0.1-3.5 0 -0.1 0-0.2 0-0.3 0C7.4 0.9 5.9 1.1 4 2 3.5 2.2 3.1 2.5 3.1 2.5s1.5-1.4 4.5-2.2L7.4 0.1c0 0-2.4-0.1-4.9 1.8 0 0-2.5 4.5-2.5 10 0 0 1.5 2.5 5.2 2.7 0 0 0.6-0.8 1.1-1.5 -2.2-0.7-3-2.1-3-2.1s0.2 0.1 0.5 0.3c0 0 0 0 0.1 0.1 0.1 0 0.1 0.1 0.2 0.1 0.4 0.3 0.9 0.4 1.3 0.6 0.7 0.3 1.5 0.5 2.6 0.8 1.3 0.3 2.8 0.3 4.5 0 0.8-0.2 1.6-0.3 2.5-0.8 0.6-0.3 1.3-0.5 2-1 0 0-0.9 1.4-3.1 2.1 0.5 0.7 1.1 1.4 1.1 1.4 3.8-0.1 5.3-2.7 5.3-2.7C20.2 6.4 17.8 1.8 17.8 1.8ZM7 8.6c-0.9 0-1.8-0.9-1.8-1.9S6 4.8 7 4.8c0.9 0 1.8 0.9 1.8 1.9S8.1 8.6 7 8.6ZM13.4 8.6c-0.9 0-1.8-0.9-1.8-1.9s0.8-1.9 1.8-1.9c0.9 0 1.8 0.9 1.8 1.9C15.1 7.7 14.3 8.6 13.4 8.6Z"/></svg>