<svg viewBox="0 0 500 499.7" xmlns="http://www.w3.org/2000/svg" fill="white"><path d="M500 500c-166.7 0-333.3 0-500 0C0 333.3 0 166.7 0 0c166.7 0 333.3 0 500 0C500 166.7 500 333.3 500 500ZM364.6 74.1c-4.7 0.9-6.2 2.7-6.1 7.5 0.2 35.3 0.1 70.7 0.1 106 0 1.7 0 3.4 0 4.4 -36.3-27.6-70.6-39.4-116.3-25.6 -59.1 18-107.4 80.9-97.5 155 5.2 39.1 23.6 70.7 54.5 94.9 27.5 21.6 59 29.2 93.7 26.4 25.8-2 47.8-11.8 66.7-29.3 0.4-0.4 1-0.5 2.2-1.2 0 10.2 0 19.6 0 28.9 26.7 0 52.8 0 79.2 0 0-127.7 0-254.8 0-382.2"/><path d="M295 233.9c38.3 0.1 66.8 29.4 66.7 68.9 -0.1 36.8-28.6 66.2-64.8 65.6 -42.1-0.6-70.2-30.2-70-67.1C227 263.7 257 233.9 295 233.9Z"/></svg>