<svg viewBox="0 0 192.4 195.1" xmlns="http://www.w3.org/2000/svg" fill="white"><path d="M186.8 118.3c1.4-6.3 2.1-12.9 2.1-19.7 0-50.7-41.1-91.7-91.7-91.7 -5.3 0-10.6 0.5-15.7 1.3C73.3 3 63.6 0 53.2 0 23.8 0 0 23.8 0 53.2c0 9.8 2.7 19 7.3 26.9 -1.2 6-1.9 12.1-1.9 18.5 0 50.7 41.1 91.7 91.7 91.7 5.7 0 11.4-0.5 16.8-1.5 7.5 4 16 6.3 25.1 6.3 29.4 0 53.2-23.8 53.2-53.2C192.4 133.4 190.4 125.4 186.8 118.3ZM144.3 142.4c-4.2 6-10.5 10.8-18.6 14.1 -8 3.3-17.7 5-28.7 5 -13.2 0-24.2-2.3-32.8-6.9 -6.2-3.3-11.2-7.8-15.1-13.4 -3.9-5.6-5.9-11.2-5.9-16.6 0-3.4 1.3-6.3 3.8-8.7 2.5-2.4 5.7-3.6 9.6-3.6 3.2 0 5.9 0.9 8.1 2.8 2.1 1.8 3.9 4.4 5.4 7.9 1.6 3.7 3.4 6.9 5.3 9.3 1.8 2.4 4.4 4.4 7.7 5.9 3.3 1.6 7.8 2.4 13.3 2.4 7.6 0 13.8-1.6 18.5-4.8 4.6-3.1 6.8-6.9 6.8-11.4 0-3.6-1.2-6.5-3.5-8.7 -2.5-2.3-5.8-4.2-9.8-5.4 -4.2-1.3-9.8-2.7-16.8-4.2 -9.5-2-17.6-4.5-24-7.2 -6.6-2.8-11.9-6.7-15.8-11.5 -3.9-4.9-5.9-11.1-5.9-18.4 0-6.9 2.1-13.2 6.2-18.6C56 45.3 62 41.1 69.7 38.3c7.6-2.8 16.7-4.2 26.9-4.2 8.2 0 15.4 0.9 21.4 2.8 6 1.9 11.1 4.4 15.2 7.6 4 3.2 7 6.5 8.9 10 1.9 3.5 2.9 7.1 2.9 10.5 0 3.3-1.3 6.3-3.8 8.9 -2.5 2.6-5.7 3.9-9.4 3.9 -3.4 0-6.1-0.8-7.9-2.5 -1.7-1.5-3.5-3.9-5.5-7.3 -2.3-4.3-5.1-7.8-8.2-10.2 -3.1-2.3-8.2-3.5-15.3-3.5 -6.6 0-11.9 1.3-15.9 3.9 -3.8 2.5-5.7 5.4-5.7 8.8 0 2.1 0.6 3.8 1.8 5.3 1.3 1.6 3.1 3 5.5 4.2 2.4 1.2 4.9 2.2 7.4 2.9 2.5 0.7 6.8 1.8 12.7 3.1 7.4 1.6 14.2 3.4 20.3 5.3 6.1 2 11.4 4.4 15.7 7.2 4.4 2.9 7.9 6.5 10.3 10.9 2.5 4.4 3.7 9.8 3.7 16.2C150.7 129.5 148.5 136.4 144.3 142.4Z"/></svg>