<?xml version="1.0" encoding="utf-8"?>
<!-- Generator: Adobe Illustrator 21.0.0, SVG Export Plug-In . SVG Version: 6.00 Build 0)  -->
<svg version="1.1" id="Calque_1" xmlns="http://www.w3.org/2000/svg" xmlns:xlink="http://www.w3.org/1999/xlink" x="0px" y="0px"
	 viewBox="0 0 16.1 13.1" style="enable-background:new 0 0 16.1 13.1;" xml:space="preserve">
<style type="text/css">
	.st0{fill:#FFFFFF;}
</style>
<path class="st0" d="M5.1,10.2C3.3,10.1,2.3,8.9,2,7.9C2.5,8,2.9,8,3.4,7.9l0,0C2.5,7.7,1.8,7.2,1.3,6.4C1,5.9,0.8,5.3,0.8,4.7
	c0.5,0.2,0.9,0.4,1.5,0.4c-0.7-0.5-1.2-1.2-1.4-2S0.8,1.5,1.3,0.7c1.8,2.1,4,3.2,6.8,3.4c0-0.1,0-0.2-0.1-0.4
	C7.9,2.9,8.1,2.2,8.5,1.6C9,0.8,9.8,0.3,10.7,0.1c1.1-0.2,2.1,0.1,2.9,0.9c0.1,0.1,0.1,0.1,0.2,0.1c0.7-0.1,1.3-0.4,1.9-0.7l0,0l0,0
	c-0.3,0.8-0.7,1.4-1.4,1.8c0.6-0.1,1.2-0.2,1.8-0.5l0,0C16,1.9,15.9,2,15.7,2.2C15.4,2.6,15,3,14.5,3.3l-0.1,0.1c0,0.5,0,1-0.1,1.5
	c-0.1,1-0.4,2-0.8,2.9c-0.4,1-1,1.8-1.8,2.6c-1.3,1.3-2.8,2.1-4.5,2.5C6.6,13,6,13.1,5.4,13.1c-1.9,0.1-3.6-0.4-5.3-1.4
	c0,0,0,0-0.1-0.1c1.1,0.1,2.2,0,3.3-0.5C4,10.9,4.6,10.6,5.1,10.2z"/>
</svg>
