<?xml version="1.0" encoding="utf-8"?>
<!-- Generator: Adobe Illustrator 21.0.0, SVG Export Plug-In . SVG Version: 6.00 Build 0)  -->
<svg version="1.1" id="Calque_1" xmlns="http://www.w3.org/2000/svg" xmlns:xlink="http://www.w3.org/1999/xlink" x="0px" y="0px"
	 viewBox="0 0 21.6 18.7" style="enable-background:new 0 0 21.6 18.7;" xml:space="preserve">
<style type="text/css">
	.st0{fill:#FFFFFF;}
	.st1{fill:none;stroke:#000000;stroke-width:1.1;}
	.st2{fill:none;}
	.st3{fill:none;stroke:#FFFFFF;stroke-width:1.1;stroke-linecap:round;stroke-linejoin:round;}
	.st4{fill:#FFFFFF;stroke:#FFFFFF;stroke-width:1.1;}
</style>
<path id="path26_3_" class="st0" d="M14.4,18.4"/>
<path id="path26_1_" class="st0" d="M14.4,18.4"/>
<path id="path30_1_" class="st1" d="M14.4,18.4"/>
<g id="g52" transform="translate(252.4888,403.9858)">
	<path id="path54" class="st0" d="M-248.3-394.5c0,1.2-1,2.1-2.1,2.1c-1.2,0-2.1-1-2.1-2.1c0-1.2,1-2.1,2.1-2.1
		C-249.2-396.6-248.3-395.7-248.3-394.5z"/>
</g>
<g id="g56" transform="translate(274.5913,403.9858)">
	<path id="path58" class="st2" d="M-253-394.5c0,1.2-1,2.1-2.1,2.1c-1.2,0-2.1-1-2.1-2.1c0-1.2,1-2.1,2.1-2.1
		C-253.9-396.6-253-395.7-253-394.5"/>
</g>
<g id="g60" transform="translate(274.5913,403.9858)">
	<path id="path62" class="st0" d="M-253-394.5c0,1.2-1,2.1-2.1,2.1c-1.2,0-2.1-1-2.1-2.1c0-1.2,1-2.1,2.1-2.1
		C-253.9-396.6-253-395.7-253-394.5z"/>
</g>
<g id="g64" transform="translate(268.3286,413.4697)">
	<path id="path66" class="st3" d="M-251.6-411.4l-4.3-1l-1.6,4.9"/>
</g>
<path id="path70_1_" class="st0" d="M7.2,18.4"/>
<path id="path74_3_" class="st1" d="M7.2,18.4"/>
<g id="g76" transform="translate(272.6641,413.0327)">
	<path id="path78" class="st2" d="M-252.6-410.7c0,0.9-0.8,1.7-1.7,1.7s-1.7-0.8-1.7-1.7c0-0.9,0.8-1.7,1.7-1.7
		C-253.3-412.3-252.6-411.6-252.6-410.7"/>
</g>
<g id="g80" transform="translate(272.6641,413.0327)">
	<path id="path82" class="st4" d="M-252.6-410.7c0,0.9-0.8,1.7-1.7,1.7s-1.7-0.8-1.7-1.7c0-0.9,0.8-1.7,1.7-1.7
		C-253.3-412.3-252.6-411.6-252.6-410.7z"/>
</g>
<path id="path86_1_" class="st0" d="M10.8,11.5"/>
<path id="path90_1_" class="st1" d="M10.8,11.5"/>
<g id="g92" transform="translate(273.0176,400.2695)">
	<path id="path94" class="st2" d="M-252.6-387.9c0,3.5-4.3,6.3-9.6,6.3c-5.3,0-9.6-2.8-9.6-6.3s4.3-6.3,9.6-6.3
		C-256.9-394.1-252.6-391.3-252.6-387.9"/>
</g>
<path class="st0" d="M10.8,6.1c-5.3,0-9.6,2.8-9.6,6.3s4.3,6.3,9.6,6.3s9.6-2.8,9.6-6.3S16.1,6.1,10.8,6.1z M6.1,11.2
	c0-0.7,0.6-1.4,1.4-1.4c0.7,0,1.4,0.6,1.4,1.4c0,0.7-0.6,1.4-1.4,1.4C6.7,12.5,6.1,11.9,6.1,11.2z M14.4,15.6
	c-0.7,0.7-1.9,1.1-3.6,1.1l0,0l0,0c-1.7,0-2.8-0.4-3.6-1.1c-0.1-0.1-0.1-0.4,0-0.5s0.4-0.1,0.5,0c0.6,0.6,1.6,0.9,3.1,0.9l0,0l0,0
	c1.5,0,2.5-0.3,3.1-0.9c0.1-0.1,0.4-0.1,0.5,0S14.5,15.4,14.4,15.6z M14.2,12.5c-0.7,0-1.4-0.6-1.4-1.4c0-0.7,0.6-1.4,1.4-1.4
	c0.7,0,1.4,0.6,1.4,1.4C15.5,11.9,14.9,12.5,14.2,12.5z"/>
</svg>
