<?xml version="1.0" encoding="utf-8"?>
<!-- Generator: Adobe Illustrator 21.0.0, SVG Export Plug-In . SVG Version: 6.00 Build 0)  -->
<svg version="1.1" id="Calque_1" xmlns="http://www.w3.org/2000/svg" xmlns:xlink="http://www.w3.org/1999/xlink" x="0px" y="0px"
	 viewBox="0 0 8.2 15.7" style="enable-background:new 0 0 8.2 15.7;" xml:space="preserve">
<style type="text/css">
	.st0{fill:#FFFFFF;}
</style>
<path class="st0" d="M6.5,2.6c0.5,0,1,0,1.5,0c0.1,0,0.1,0,0.2,0V0.1C7.9,0.1,7.7,0,7.4,0c-0.5,0-1,0-1.5,0C5.1,0,4.4,0.2,3.8,0.7
	C3.1,1.2,2.7,1.9,2.5,2.8C2.4,3.2,2.4,3.5,2.4,3.9c0,0.6,0,1.1,0,1.7v0.2H0v2.8h2.4v7.1h2.9V8.6h2.4c0.1-0.9,0.2-1.9,0.4-2.8
	c-0.2,0-0.4,0-0.5,0c-0.7,0-2.2,0-2.2,0s0-1.4,0-2C5.3,2.9,5.8,2.6,6.5,2.6z"/>
</svg>
