<?xml version="1.0" encoding="utf-8"?>
<!-- Generator: Adobe Illustrator 21.0.0, SVG Export Plug-In . SVG Version: 6.00 Build 0)  -->
<svg version="1.1" id="Calque_1" xmlns="http://www.w3.org/2000/svg" xmlns:xlink="http://www.w3.org/1999/xlink" x="0px" y="0px"
	 viewBox="0 0 16.1 11.4" style="enable-background:new 0 0 16.1 11.4;" xml:space="preserve">
<style type="text/css">
	.st0{fill:#FFFFFF;}
</style>
<path class="st0" d="M1.6,11c-0.6-0.2-1-0.6-1.2-1.2c-0.5-1.5-0.7-7.7,0.3-8.9C1,0.5,1.5,0.3,2,0.2c2.8-0.3,11.4-0.3,12.4,0.1
	c0.6,0.2,1,0.6,1.2,1.2c0.6,1.5,0.6,7.1-0.1,8.6c-0.2,0.4-0.5,0.7-0.9,0.9C13.7,11.5,3,11.5,1.6,11z M6,8.1c1.7-0.9,3.3-1.7,5-2.6
	C9.3,4.6,7.7,3.8,6,2.9C6,4.7,6,6.4,6,8.1z"/>
</svg>
