<svg viewBox="0 0 113.7 72" xmlns="http://www.w3.org/2000/svg" fill="white"><path d="M113.7 1.2c0 0.4-0.1 0.8-0.4 1.1 -0.3 0.3-0.5 0.5-0.8 0.5 -2.5 0.2-4.5 1-6.1 2.4 -1.6 1.4-3.2 4-4.9 7.8L75.7 71.2C75.5 71.7 75 72 74.2 72c-0.6 0-1.1-0.3-1.4-0.8L58.3 40.9 41.7 71.2c-0.3 0.5-0.8 0.8-1.4 0.8 -0.7 0-1.2-0.3-1.5-0.8L13.5 13c-1.6-3.6-3.3-6.1-5-7.6C6.7 4.1 4.2 3.2 1.1 2.8c-0.3 0-0.5-0.1-0.8-0.4C0.1 2.1 0 1.8 0 1.4 0 0.5 0.3 0 0.8 0c2.3 0 4.6 0.1 7.1 0.3 2.3 0.2 4.5 0.3 6.5 0.3 2.1 0 4.5-0.1 7.3-0.3C24.6 0.1 27.2 0 29.4 0c0.5 0 0.8 0.5 0.8 1.4 0 0.9-0.2 1.4-0.5 1.4 -2.3 0.2-4 0.8-5.3 1.7 -1.3 1-1.9 2.3-1.9 3.9 0 0.8 0.3 1.8 0.8 3l20.9 47.3 11.9-22.5L45 13c-2-4.1-3.6-6.8-4.9-8 -1.3-1.2-3.2-1.9-5.8-2.2 -0.2 0-0.5-0.1-0.7-0.4 -0.2-0.3-0.3-0.6-0.3-1 0-1 0.2-1.4 0.7-1.4 2.3 0 4.3 0.1 6.2 0.3C42 0.5 44 0.6 46 0.6c2 0 4.2-0.1 6.4-0.3C54.8 0.1 57.1 0 59.3 0c0.5 0 0.8 0.5 0.8 1.4 0 0.9-0.2 1.4-0.5 1.4 -4.5 0.3-6.8 1.6-6.8 3.9 0 1 0.5 2.6 1.6 4.7l7.3 14.9 7.3-13.6c1-1.9 1.5-3.5 1.5-4.9 0-3.1-2.3-4.8-6.8-5 -0.4 0-0.6-0.5-0.6-1.4 0-0.3 0.1-0.7 0.3-1C63.7 0.1 63.9 0 64.1 0c1.6 0 3.6 0.1 6 0.3 2.3 0.2 4.1 0.3 5.6 0.3 1 0 2.6-0.1 4.6-0.3C82.8 0.1 85 0 86.7 0c0.4 0 0.6 0.4 0.6 1.2 0 1.1-0.4 1.6-1.1 1.6 -2.6 0.3-4.8 1-6.3 2.2 -1.6 1.2-3.6 3.9-6 8l-9.7 18 13.2 26.8 19.4-45.2c0.7-1.7 1-3.2 1-4.6 0-3.3-2.3-5.1-6.8-5.3 -0.4 0-0.6-0.5-0.6-1.4 0-1 0.3-1.4 0.9-1.4 1.7 0 3.6 0.1 5.9 0.3 2.1 0.2 3.8 0.3 5.3 0.3 1.5 0 3.2-0.1 5.2-0.3 2-0.2 3.8-0.3 5.5-0.3C113.5 0 113.7 0.4 113.7 1.2Z"/></svg>